<?xml version="1.0" encoding="utf-8"?>
<!-- Generator: Adobe Illustrator 23.1.1, SVG Export Plug-In . SVG Version: 6.00 Build 0)  -->
<svg version="1.1" id="Layer_1" xmlns="http://www.w3.org/2000/svg" xmlns:xlink="http://www.w3.org/1999/xlink" x="0px" y="0px"
	 viewBox="0 0 2239 404" style="enable-background:new 0 0 2239 404;" xml:space="preserve">
<style type="text/css">
	.st0{fill:#5DBB53;}
	.st1{fill:#347037;}
	.st2{fill:#00AF4C;}
	.st3{fill:#BCD531;}
	.st4{fill:#FFFFFF;}
	.st5{fill:#92CB74;}
	.st6{fill:#2DA042;}
	.st7{fill:#88C440;}
	.st8{fill:#04873C;}
	.st9{fill:#E5E023;}
	.st10{fill:#62BB46;}
	.st11{fill:#9DCC58;}
	.st12{fill:#3C2415;}
	.st13{fill:#17BAD4;}
	.st14{font-family:'ArialRoundedMTBold';}
	.st15{font-size:304.2042px;}
	.st16{font-size:114.777px;}
</style>
<g>
	<g>
		<path class="st0" d="M159.42,367.88c0,0-60.21,17.1-7.46,16.39c0,0-5.17,28.59,10.49,2.19c0,0,38.84,40.55,3.52-17.2
			L159.42,367.88z"/>
		<g>
			<path class="st1" d="M164.49,368.93c-7.78-1.63-6.11-1.48,1.76-0.09c1.77,2.72,3.6,5.55,5.85,9.23
				c2.19,3.61,4.64,7.73,6.96,12.36c1.11,2.37,2.34,4.68,2.88,7.75c0.15,0.81,0.01,2.45-1.03,3c-0.92,0.68-2.58,0.16-3.11-0.1
				c-1.44-0.63-2.61-1.44-3.78-2.28c-2.31-1.69-4.45-3.54-6.54-5.44l-3.08-2.9l-1.51-1.47c-0.27-0.27-0.1-0.1-0.17-0.15
				c0.42-0.66-1.09,1.83-2.05,3.26c-1.07,1.58-2.16,3.13-3.49,4.56c-0.58,0.62-1.18,1.22-2,1.76c-0.6,0.53-2.6,1.23-3.78,0.18
				c-1.26-1.16-1.29-2.17-1.51-3.01c-0.14-0.87-0.19-1.69-0.21-2.49c-0.02-1.6,0.1-3.13,0.26-4.63l0.29-2.22
				c0.07-0.5,0.07-0.45,0.08-0.47l0.02-0.08l-0.09-0.02l-0.03,0l-0.31,0l-0.69-0.01l-2.75-0.05c-1.82-0.05-3.6-0.13-5.34-0.26
				c-3.51-0.34-6.82-0.47-10.11-2.01c-0.77-0.33-2.06-1.65-1.61-2.91c0.44-1.34,1.15-1.74,1.76-2.3c1.29-0.97,2.59-1.63,3.85-2.25
				c2.54-1.2,4.94-2.09,7.13-2.86c8.79-3.01,14.22-4.21,14.37-4.29c6.32-1.81,1.86-0.44-7.96,3.19c-2.45,0.92-5.22,2-8.19,3.32
				c-1.48,0.66-3.01,1.37-4.54,2.19c-1.48,0.81-3.13,1.76-4.13,2.91c-0.45,0.55-0.31,0.64-0.04,0.89c0.51,0.35,1.42,0.64,2.29,0.83
				c1.79,0.39,3.75,0.57,5.74,0.69c1.99,0.12,4.02,0.16,6.07,0.18l7.88-0.09l-0.37,2.2l-0.24,1.68l-0.24,2.2
				c-0.13,1.47-0.21,2.93-0.17,4.33c0.02,0.7,0.09,1.39,0.21,1.99c0.06,0.29,0.14,0.56,0.23,0.75c0.1,0.21,0.06,0.11,0.07,0.13
				c-0.41,0.25,1.06-0.51,1.87-1.53c1.18-1.29,2.26-2.79,3.28-4.29l1.49-2.28l2.4-3.93l3.16,3.27l1.86,1.86
				c1.23,1.22,2.47,2.41,3.7,3.55c2.46,2.23,4.93,4.46,7.43,5.87c0.3,0.16,0.63,0.31,0.86,0.39c0.12,0.04,0.18,0.06,0.28,0.05
				c0.2-0.1,0.25-0.12,0.22-0.63c-0.13-1.27-0.6-2.67-1.08-3.97c-0.98-2.61-2.13-5.05-3.22-7.31c-4.44-9-8.07-15.29-9.46-17.87
				L164.49,368.93z"/>
		</g>
	</g>
	<g>
		<path class="st0" d="M290.1,369.11c0,0,60.68,10.92,8.87,15.35c0,0,7.8,27.54-10.07,3.16c0,0-34.24,43.54-5.09-16.54L290.1,369.11
			z"/>
		<g>
			<path class="st1" d="M285.23,370.65c7.64-2.4,5.6-1.56-1.1,0.81c-2.07,4.8-5.94,13.02-9.21,22.38c-0.76,2.33-1.62,4.91-1.7,7.2
				c0.01,0.49,0.04,0.39,0.16,0.51c0.2-0.01,0.03,0.07,0.68-0.27c0.99-0.58,1.99-1.46,2.96-2.35c1.93-1.82,3.77-3.84,5.56-5.9
				l2.65-3.14l3.71-4.65c2.69,3.63,3.23,4.3,4.49,5.83c1.14,1.37,2.32,2.7,3.54,3.79c0.52,0.46,1.07,0.89,1.55,1.14
				c0.63,0.29,0.38,0.15,0.44,0.18c-0.05,0.17,0.21-0.48,0.23-1.07c0.05-0.63,0.04-1.31-0.01-2c-0.1-1.39-0.32-2.8-0.59-4.18
				l-0.43-2.07l-0.4-1.63l-0.55-2.01l7.01-0.6c1.75-0.17,3.47-0.36,5.13-0.59c3.27-0.49,6.66-0.98,8.98-2.24
				c0.94-0.55,0.69-0.89-0.52-1.84c-1.09-0.76-2.35-1.34-3.57-1.86c-2.45-1.04-4.83-1.83-6.99-2.51c-8.69-2.66-14.06-3.83-14.2-3.89
				c-6.37-1.16-1.79-0.78,8.37,1.23c2.54,0.52,5.42,1.16,8.55,2.02c1.56,0.43,3.18,0.92,4.85,1.53c1.66,0.66,3.39,1.23,5.08,2.67
				c0.38,0.32,0.97,1.05,1.04,1.85c0.12,0.79-0.33,1.63-0.88,2.12c-0.97,0.86-1.92,1.22-2.89,1.6c-1.93,0.7-3.89,1.13-5.89,1.52
				c-1.99,0.38-4.01,0.68-6.05,0.95l-3.07,0.37l-1.36,0.14l-0.09,0.03l0.03,0.07l0.01,0.06l0.12,0.48l0.5,2.23
				c0.31,1.49,0.56,3.01,0.68,4.59c0.05,0.79,0.08,1.6-0.01,2.48c-0.05,0.44-0.12,0.89-0.29,1.4c-0.14,0.49-0.56,1.26-1.14,1.66
				c-0.58,0.44-1.33,0.57-2.04,0.46c-0.7-0.12-1.12-0.33-1.53-0.56c-0.81-0.45-1.42-0.96-2.01-1.47c-1.51-1.35-2.75-2.8-3.94-4.24
				l-1.72-2.18l-0.41-0.55c-0.17-0.22-0.05-0.07-0.09-0.12l-0.02-0.04l-0.03,0.02c-0.04,0.04,0.06-0.07-0.1,0.11l-0.43,0.51l-1.71,2
				c-1.15,1.32-2.29,2.6-3.45,3.83c-2.36,2.45-4.6,4.81-7.42,6.66c-0.38,0.22-0.73,0.43-1.21,0.63c-0.59,0.23-1.29,0.38-1.89,0.22
				c-1.32-0.23-1.74-1.98-1.64-2.91c0.09-1.72,0.54-3.13,0.96-4.52c0.88-2.74,1.92-5.21,2.92-7.51c4.08-9.13,7.53-15.31,8.91-17.95
				L285.23,370.65z"/>
		</g>
	</g>
	<path class="st2" d="M222.43,382.54c-55.37-1.62-97.27-21.23-124.52-58.27C67.48,282.89,40.9,197.34,87.07,24.7
		c0.87-3.26,1.63-6.07,1.85-7.11c1.17-5.45,5.2-9.82,10.5-11.38c1.54-0.45,3.12-0.65,4.68-0.61c3.8,0.11,7.48,1.67,10.25,4.47
		c0.48,0.48,50.34,49.71,121.2,51.79c41.19,1.21,85.83-27.05,124.88-57.5c2.8-2.18,6.22-3.27,9.66-3.17
		c1.54,0.04,3.08,0.33,4.57,0.86c4.82,1.72,8.46,5.79,9.66,10.81c1.99,8.35,43.88,219.02-34.6,316.7
		C320.18,366.33,277.35,384.15,222.43,382.54z"/>
	<g>
		<path class="st1" d="M266.25,379.21c-11.54,2.22-20.78,2.88-27.68,3.2c-6.91,0.27-11.51,0.18-13.97,0.11
			c-4.92-0.2-1.31,0.07,9.31-0.15c5.31-0.13,12.38-0.5,20.95-1.63c8.56-1.11,18.62-3.07,29.64-6.65
			c10.98-3.61,22.96-8.93,34.67-16.93c11.74-7.93,23.11-18.6,32.96-31.74c9.86-13.15,18.01-28.79,24.37-45.96
			c6.36-17.18,10.97-35.88,14.12-55.44c6.27-39.17,6.92-81.67,3.87-124.8c-1.55-21.58-4.01-43.36-7.47-65.05
			c-0.87-5.41-1.8-10.83-2.84-16.22c-0.58-2.7-0.9-5.44-2.01-7.66c-1.1-2.28-2.82-4.27-4.94-5.64c-4.22-2.81-9.95-3.02-14.33-0.48
			c-1.1,0.58-2.07,1.42-3.19,2.27l-3.25,2.51l-6.54,4.95c-17.52,13.04-35.73,25.14-55.12,34.44c-19.28,9.21-40.19,15.75-61.11,14.72
			c-20.69-0.82-40.83-5.75-59.41-13.44c-18.59-7.71-35.74-18.01-50.99-30.17c-3.78-3.01-7.55-6.33-10.91-9.53
			c-3.41-2.84-8.19-3.83-12.4-2.63c-4.24,1.13-7.8,4.41-9.34,8.51c-0.4,1.01-0.6,2.06-0.91,3.28l-0.91,3.43l-1.82,6.8
			c-4.77,18.1-8.94,35.94-12.4,53.47c-6.92,35.05-11.05,68.87-11.57,100.63c-0.53,31.72,2.63,61.44,10.08,87.38
			c7.35,25.96,19.28,47.9,33.66,63.76c14.27,16.04,30.23,26.06,43.9,32.4c13.76,6.34,25.31,9.26,33.23,11.05
			c7.96,1.71,12.4,2.26,12.8,2.35c16.3,2.25,24.52,2.03,25.57,2.24c1.07-0.01-4.98,0.14-16.9-0.97
			c-11.84-1.25-29.88-3.6-50.95-12.35c-10.48-4.39-21.63-10.48-32.33-19.01c-10.73-8.46-20.9-19.4-29.48-32.53
			c-8.56-13.15-15.41-28.47-20.39-45.1c-4.99-16.65-8.15-34.61-9.74-53.29c-3.17-37.4-0.17-77.54,6.6-118.11
			c3.39-20.3,7.73-40.76,12.81-61.19l3.94-15.32c0.67-2.55,1.38-5.11,1.97-7.63c0.64-2.77,2.01-5.37,3.94-7.46
			c3.83-4.23,9.96-6.13,15.5-4.81c2.76,0.63,5.35,2.02,7.43,3.96c1.9,1.86,3.83,3.57,5.83,5.28
			c32.07,26.85,72.39,44.87,113.25,46.48c20.35,0.97,40.11-5.25,58.06-13.56c18.02-8.42,34.63-19.11,50.31-30.38
			c3.92-2.82,7.78-5.69,11.6-8.59l5.68-4.37c1.97-1.58,4.38-2.74,6.87-3.26c5.01-1.12,10.43,0.42,14.17,3.84
			c1.88,1.7,3.36,3.84,4.27,6.21c0.91,2.44,1.18,4.75,1.68,7.05c3.46,18.47,5.91,36.69,7.8,54.51c3.7,35.64,4.83,69.78,3.25,101.6
			c-1.59,31.82-5.96,61.38-13.5,87.43c-7.47,26.05-18.33,48.51-31.46,65.6c-13.1,17.15-27.98,28.82-41.16,36.27
			c-13.23,7.49-24.61,11.16-32.42,13.37C271.06,378.39,266.64,379.09,266.25,379.21z"/>
	</g>
	<path class="st3" d="M223.08,362.37c-51.65-1.51-90.75-19.12-116.2-52.32c-28.42-37.07-53.3-113.7-10.43-268.22
		c0.81-2.92,1.51-5.44,1.72-6.36c1.09-4.88,4.84-8.79,9.78-10.19c1.44-0.41,2.91-0.58,4.36-0.54c3.55,0.1,6.98,1.5,9.56,4.01
		c0.44,0.42,47.01,44.57,113.1,46.51c38.42,1.13,80.02-24.13,116.42-51.35c2.61-1.95,5.8-2.92,9.01-2.82
		c1.43,0.04,2.87,0.3,4.26,0.78c4.5,1.54,7.9,5.19,9.02,9.69c1.87,7.48,41.16,196.14-31.93,283.52
		C314.24,347.96,274.31,363.87,223.08,362.37z"/>
	<g>
		<path class="st4" d="M299.22,91.59c-28.5-0.84-53.52,15.5-65.38,39.73c-10.45-24.88-34.49-42.66-62.99-43.49
			c-38.99-1.14-71.52,29.86-72.65,69.24c-1.13,39.39,29.56,72.24,68.55,73.38c28.5,0.84,53.52-15.5,65.38-39.73
			c10.45,24.88,34.49,42.66,62.99,43.49c38.99,1.14,71.51-29.86,72.65-69.24C368.9,125.59,338.21,92.73,299.22,91.59z"/>
	</g>
	<path class="st5" d="M300.81,91.37c-29.2-0.85-54.83,15.54-66.97,39.84c-10.72-24.98-35.37-42.84-64.57-43.7
		c-39.95-1.17-73.26,29.93-74.4,69.47c-1.14,39.53,30.33,72.53,70.29,73.7c29.2,0.85,54.83-15.54,66.96-39.84
		c10.72,24.98,35.37,42.84,64.57,43.7c39.95,1.17,73.26-29.93,74.4-69.46C372.23,125.54,340.76,92.53,300.81,91.37z M292.84,230.08
		c-27.43-0.8-50.59-17.58-60.66-41.05c-11.4,22.83-35.48,38.23-62.91,37.42c-37.53-1.1-67.1-32.1-66.03-69.24
		c1.07-37.14,32.36-66.35,69.89-65.25c27.43,0.8,50.58,17.58,60.66,41.05c11.4-22.83,35.48-38.23,62.91-37.42
		c37.53,1.1,67.1,32.1,66.03,69.24C361.66,201.97,330.36,231.18,292.84,230.08z"/>
	<g>
		<path class="st6" d="M229.91,221.02c-2.32-0.13-4.4-1.68-5.45-4.07l-11.04-33.23c-1.3-2.93-0.83-6.51,1.16-8.89
			c0.85-1.02,8.66-10,19.05-9.69c4.51,0.13,11.14,2.15,17.16,11c1.74,2.57,1.87,6.17,0.33,8.93l-15.4,32.45
			c-1.25,2.25-3.4,3.57-5.67,3.5C229.99,221.02,229.94,221.01,229.91,221.02z"/>
		<path class="st7" d="M230.23,211.65c-2.22-0.11-4.22-1.4-5.24-3.39l-10.72-27.51c-1.25-2.42-0.82-5.39,1.07-7.34
			c0.82-0.84,8.27-8.23,18.23-7.93c4.32,0.13,10.69,1.82,16.49,9.16c1.68,2.13,1.82,5.11,0.36,7.39l-14.65,26.77
			c-1.19,1.85-3.25,2.93-5.42,2.87C230.31,211.65,230.27,211.64,230.23,211.65z"/>
		<g>
			<path class="st8" d="M234.44,210.22c-1.38,1.11-2.66,1.27-3.34,1.35c-0.71,0.01-0.94-0.01-0.74-0.05
				c0.19-0.05,0.81-0.05,1.72-0.34c0.89-0.3,2.12-0.91,3.05-2.19l14.38-27.49l0.03-0.04l0.01-0.02c1.05-1.67,1.06-3.95-0.02-5.61
				c-1.23-1.7-2.97-3.47-4.72-4.85c-3.56-2.84-7.96-4.37-12.17-4.25c-3.92,0.08-7.69,1.39-10.94,3.29
				c-1.63,0.95-3.15,2.05-4.53,3.23c-0.71,0.62-1.32,1.17-1.71,1.8c-0.42,0.64-0.69,1.37-0.79,2.12c-0.11,0.75-0.05,1.51,0.16,2.22
				c0.12,0.41,0.21,0.56,0.44,1.16l0.45,1.22l1.72,4.71l3.05,8.46l4.34,12.32c0.96,2.97,3,3.61,2.95,3.68
				c1.52,0.73,2.41,0.63,2.5,0.72c0.12,0.01-0.52,0.13-1.74-0.19c-1.16-0.34-3.08-1.25-4.1-3.58l-3.23-7.67l-4.04-9.72l-2.23-5.43
				l-1.15-2.82c-0.19-0.45-0.4-1.02-0.58-1.37c-0.26-0.54-0.46-1.12-0.57-1.72c-0.52-2.4,0.33-5.1,2.12-6.81
				c1.59-1.58,3.34-2.95,5.22-4.14c3.76-2.38,8.15-3.96,12.61-4.04c5.49-0.16,10.65,2.17,14.35,5.45c0.94,0.82,1.8,1.69,2.6,2.59
				c0.76,0.92,1.59,1.75,2.2,3.01c1.19,2.4,0.88,5.29-0.49,7.31l0.04-0.06c-4.78,8.34-8.86,15.29-11.77,20.19l-3.41,5.72
				C235.26,209.74,234.47,210.18,234.44,210.22z"/>
		</g>
	</g>
	<path class="st9" d="M106.89,310.06c25.45,33.2,64.55,50.8,116.2,52.32c51.23,1.5,91.16-14.41,118.67-47.29
		c4.75-5.68,9.02-11.8,12.87-18.26c-29.91,10.09-78.05,12.92-127.55-39.59c0,0-61.99,51.14-137.49,22.79
		C94.75,292.14,100.73,302.03,106.89,310.06z"/>
	<path class="st7" d="M163.97,293.4c0,0,15.72,15.94,32.33,0.95C196.3,294.35,178.65,323.94,163.97,293.4z"/>
	<path class="st7" d="M207.75,280.92c0,0,15.72,15.95,32.33,0.95C240.08,281.87,222.43,311.46,207.75,280.92z"/>
	<path class="st7" d="M249,297.61c0,0,15.72,15.94,32.33,0.95C281.33,298.56,263.68,328.15,249,297.61z"/>
	<path class="st7" d="M222.93,315.77c0,0,15.72,15.94,32.33,0.95C255.26,316.72,237.61,346.31,222.93,315.77z"/>
	<path class="st7" d="M178.62,317.05c0,0,15.72,15.94,32.33,0.95C210.94,318,193.3,347.59,178.62,317.05z"/>
	<path class="st7" d="M201.77,340.96c0,0,15.72,15.94,32.33,0.95C234.11,341.91,216.45,371.49,201.77,340.96z"/>
	<path class="st7" d="M273.78,324.14c0,0,15.72,15.94,32.33,0.95C306.12,325.09,288.46,354.68,273.78,324.14z"/>
	<path class="st7" d="M132.79,311.41c0,0,15.72,15.94,32.34,0.95C165.13,312.36,147.47,341.95,132.79,311.41z"/>
	<path class="st7" d="M241.81,340.41c0,0,15.72,15.94,32.33,0.95C274.14,341.36,256.49,370.95,241.81,340.41z"/>
	<path class="st7" d="M157.6,337.08c0,0,15.72,15.95,32.33,0.95C189.94,338.03,172.28,367.62,157.6,337.08z"/>
	<g>
		<g>
			<path class="st10" d="M452.92,165.86c0,0-71.87,5.54-118.47,46.25c-46.59,40.71-26.36,98.67,25.45,89.15
				C427.41,288.85,426.2,206.19,452.92,165.86z"/>
			<g>
				<path class="st8" d="M445.6,179.24c3.43-7.4,6.03-11.3,6.96-12.72c0.98-1.39,0.27-0.36-1.58,2.82
					c-1.84,3.18-4.66,8.62-7.65,16.08c-3.03,7.44-6.2,16.88-9.72,27.7c-3.56,10.79-7.46,23-12.97,35.55
					c-5.53,12.47-12.88,25.52-23.97,35.79c-5.51,5.11-11.91,9.41-18.87,12.53c-6.97,3.12-14.38,5.15-21.94,6.11
					c-7.55,0.92-15.34,0.43-22.51-2.05c-7.16-2.43-13.53-6.98-17.97-12.85c-4.48-5.85-7.07-12.91-7.93-19.97
					c-0.86-7.09-0.07-14.19,1.85-20.75c3.83-13.21,11.8-24.16,20.68-32.7c9-8.51,18.72-15.12,28.19-20.52
					c9.5-5.39,18.79-9.51,27.43-12.81c17.32-6.56,31.97-9.89,42.17-11.91c10.23-1.97,16.06-2.59,16.34-2.65
					c5.6-0.78,8.4-0.98,8.77-0.98c0.37,0.01-1.69,0.2-5.77,0.78c-8.11,1.18-24.36,3.8-44.68,10.23
					c-10.13,3.24-21.28,7.45-32.65,13.12c-11.35,5.67-22.96,12.82-33.54,21.94c-10.53,9-19.73,20.69-24.09,34.39
					c-2.18,6.8-3.09,14.04-2.29,21.06c0.77,7.02,3.32,13.78,7.5,19.23c4.15,5.47,9.88,9.5,16.13,11.79
					c6.25,2.32,12.97,2.94,19.45,2.5c12.99-1.09,25.31-5.46,35.18-12.34c9.93-6.87,17.34-16.03,22.97-25.24
					c5.65-9.26,9.7-18.6,13.1-27.22c6.67-17.32,11.12-31.76,14.93-41.54C442.84,184.79,445.5,179.49,445.6,179.24z"/>
			</g>
		</g>
	</g>
	<path class="st11" d="M315.14,276.26c8.08-18.86,31.68-35.71,44.97-47.97c20.12-18.58,44.05-30.87,66.96-45.4
		c6.99-4.44,13.45-8.46,20.09-12.01c0.48-0.78,0.95-1.58,1.45-2.33c0,0-68,5.24-112.09,43.76
		C312.75,233.08,307.38,258.57,315.14,276.26z"/>
	<g>
		<g>
			<path class="st10" d="M11,145.96c0,0,69.89,17.8,108.97,65.92c39.07,48.12,9.37,101.76-40.07,83.49
				C15.44,271.55,30.55,190.29,11,145.96z"/>
			<g>
				<path class="st8" d="M15.98,160.4c-2.13-7.88-4-12.18-4.62-13.76c-0.67-1.58-0.06-0.48,1.35,2.94c1.39,3.43,3.4,9.26,5.24,17.13
					c1.88,7.85,3.58,17.71,5.38,28.95c1.85,11.22,3.79,23.87,7.23,37.02c3.46,13.08,8.57,26.9,17.6,38.5
					c4.49,5.77,9.93,10.9,16.08,14.99c6.15,4.09,12.98,7.25,20.01,9.37c7.02,2.09,14.42,2.85,21.44,1.7
					c7.03-1.13,13.57-4.29,18.57-8.97c5.03-4.66,8.55-10.74,10.49-17.18c1.94-6.45,2.38-13.24,1.66-19.76
					c-1.42-13.12-7.13-24.99-14.2-34.78c-7.19-9.79-15.48-18-23.72-24.99c-8.27-6.99-16.59-12.74-24.43-17.58
					c-15.71-9.66-29.44-15.74-39.05-19.7c-9.64-3.91-15.25-5.67-15.51-5.78c-5.38-1.73-8.1-2.45-8.46-2.57
					c-0.35-0.12,1.68,0.32,5.64,1.48c7.89,2.33,23.58,7.41,42.76,16.99c9.57,4.81,19.98,10.77,30.41,18.26
					c10.41,7.48,20.86,16.51,29.98,27.41c9.12,10.81,16.56,24.23,18.72,39.05c1.08,7.36,0.79,15.01-1.28,22.2
					c-2.03,7.17-5.91,13.84-11.31,18.82c-5.37,5.02-12.17,8.22-19.14,9.46c-6.98,1.27-14.05,0.66-20.61-0.99
					c-13.06-3.5-24.72-10.19-33.5-19.04c-8.83-8.84-14.58-19.46-18.5-29.7c-3.92-10.3-6.2-20.31-7.96-29.46
					c-3.36-18.35-4.99-33.35-6.88-43.68C17.61,166.39,16.04,160.67,15.98,160.4z"/>
			</g>
		</g>
	</g>
	<path class="st11" d="M29.77,154.53c4.62,3.55,9.24,7.11,13.91,10.58c42.11,31.28,75.21,63.62,81.69,117.1
		c13.53-15.46,14.18-43.69-7.32-70.17C91.92,179.87,51.17,162.12,29.77,154.53z"/>
	<path class="st12" d="M323.51,160.87c-3.53,13.88-17.52,22.24-31.26,18.68c-13.74-3.56-22.02-17.7-18.5-31.57
		c3.53-13.88,17.52-22.25,31.26-18.69C318.76,132.85,327.04,146.98,323.51,160.87z"/>
	<path class="st4" d="M313.03,149.21c-1.17,4.62-5.84,7.42-10.42,6.23c-4.58-1.18-7.34-5.9-6.16-10.53
		c1.17-4.63,5.84-7.42,10.42-6.23C311.44,139.87,314.2,144.58,313.03,149.21z"/>
	<path class="st12" d="M194.64,164.08c-3.53,13.88-17.52,22.24-31.26,18.68c-13.74-3.56-22.02-17.7-18.5-31.57
		c3.53-13.88,17.52-22.25,31.26-18.69C189.88,136.06,198.16,150.2,194.64,164.08z"/>
	<path class="st4" d="M184.15,152.42c-1.17,4.62-5.84,7.42-10.42,6.23c-4.58-1.18-7.34-5.9-6.16-10.53
		c1.17-4.63,5.84-7.42,10.42-6.23C182.56,143.08,185.32,147.8,184.15,152.42z"/>
</g>
<g>
	<text transform="matrix(0.9168 0 0 1 478.6792 342.8315)"><tspan x="0" y="0" class="st13 st14 st15">TOEIC  </tspan><tspan x="1106.45" y="0" class="st4 st14 st15">TEST</tspan></text>
</g>
<text transform="matrix(1.1718 0 0 1 1336.9395 173.167)" class="st13 st14 st16">®</text>
</svg>
